<?xml version="1.0" encoding="UTF-8" standalone="no"?>
<svg
   xmlns:dc="http://purl.org/dc/elements/1.1/"
   xmlns:cc="http://creativecommons.org/ns#"
   xmlns:rdf="http://www.w3.org/1999/02/22-rdf-syntax-ns#"
   xmlns:svg="http://www.w3.org/2000/svg"
   xmlns="http://www.w3.org/2000/svg"
   xmlns:sodipodi="http://sodipodi.sourceforge.net/DTD/sodipodi-0.dtd"
   xmlns:inkscape="http://www.inkscape.org/namespaces/inkscape"
   sodipodi:docname="unify-logo.svg"
   inkscape:version="1.0beta2 (2b71d25, 2019-12-03)"
   id="svg8"
   version="1.1"
   viewBox="0 0 61.579109 23.136124"
   height="23.136124mm"
   width="61.579109mm">
  <defs
     id="defs2" />
  <sodipodi:namedview
     inkscape:window-maximized="0"
     inkscape:window-y="324"
     inkscape:window-x="2625"
     inkscape:window-height="880"
     inkscape:window-width="1600"
     showgrid="false"
     inkscape:document-rotation="0"
     inkscape:current-layer="layer1"
     inkscape:document-units="mm"
     inkscape:cy="-30.580561"
     inkscape:cx="70.625665"
     inkscape:zoom="1.6563131"
     inkscape:pageshadow="2"
     inkscape:pageopacity="0.0"
     borderopacity="1.0"
     bordercolor="#666666"
     pagecolor="#ffffff"
     id="base" />
  <metadata
     id="metadata5">
    <rdf:RDF>
      <cc:Work
         rdf:about="">
        <dc:format>image/svg+xml</dc:format>
        <dc:type
           rdf:resource="http://purl.org/dc/dcmitype/StillImage" />
        <dc:title></dc:title>
      </cc:Work>
    </rdf:RDF>
  </metadata>
  <g
     transform="translate(-68.24815,-108.63277)"
     id="layer1"
     inkscape:groupmode="layer"
     inkscape:label="Layer 1">
    <path
       inkscape:connector-curvature="0"
       id="path861"
       d="m 79.006092,131.73118 c -1.016951,-0.15781 -1.858165,-0.42696 -2.709334,-0.86685 -2.561508,-1.32379 -4.226385,-3.66838 -4.659326,-6.56157 -0.01968,-0.13152 -0.06476,-0.20184 -0.20184,-0.31491 -0.36003,-0.29694 -1.206771,-1.17756 -1.447513,-1.50542 -0.737969,-1.00504 -1.302491,-2.20641 -1.52655,-3.2487 -0.03633,-0.16902 -0.07433,-0.3454 -0.08443,-0.39197 -0.155062,-0.71464 -0.173076,-2.05382 -0.03882,-2.88601 0.262511,-1.62719 0.946884,-3.09046 2.047115,-4.37698 0.970941,-1.13535 2.598106,-2.18835 3.993594,-2.58442 0.100158,-0.0284 0.201155,-0.0575 0.224439,-0.0645 0.03674,-0.0111 0.468402,-0.11134 0.719666,-0.16708 0.705279,-0.15647 2.060148,-0.17346 2.899834,-0.0364 0.564599,0.0922 0.972152,0.1947 1.447111,0.36406 0.263481,0.0939 0.507631,0.1706 0.542556,0.17033 0.03493,-2.7e-4 0.263151,-0.0701 0.50717,-0.15528 0.417224,-0.14556 1.00635,-0.30355 1.291996,-0.34647 0.06985,-0.0105 0.174625,-0.0283 0.232834,-0.0395 0.05821,-0.0112 0.379007,-0.0415 0.712886,-0.0672 0.653417,-0.0504 1.635434,3.1e-4 2.144614,0.11079 0.04657,0.0101 0.224158,0.0483 0.394647,0.085 0.823228,0.17694 1.784854,0.57683 2.627841,1.0928 1.755267,1.07434 3.182186,2.97298 3.750062,4.98978 0.03679,0.13066 0.07503,0.27982 0.08498,0.33146 0.0099,0.0516 0.02878,0.12759 0.04185,0.16878 0.01307,0.0412 0.06136,0.33018 0.107309,0.6422 0.06773,0.45995 0.08007,0.71954 0.0652,1.37165 -0.0204,0.89477 -0.03399,1.01321 -0.210747,1.83676 -0.173511,0.8084 -0.66911,1.94806 -1.187609,2.73096 -0.492623,0.74382 -1.272126,1.59487 -1.892816,2.06652 -0.03939,0.0299 -0.08362,0.14015 -0.09829,0.24492 -0.428695,3.06112 -2.43765,5.66053 -5.283718,6.83669 -0.394805,0.16315 -1.135737,0.39372 -1.489039,0.46337 -0.06985,0.0138 -0.174625,0.0345 -0.232833,0.0461 -0.398194,0.0794 -0.772165,0.10226 -1.608667,0.0984 -0.523875,-0.002 -1.04775,-0.0192 -1.164166,-0.0373 z m 2.201333,-1.22894 c 0.325472,-0.0422 0.33773,-0.0445 0.754893,-0.14208 2.131797,-0.49845 4.039627,-2.06663 4.974498,-4.0889 0.186814,-0.40411 0.443934,-1.12397 0.42279,-1.18369 -0.0076,-0.0215 -0.163471,0.027 -0.346345,0.10781 -0.497515,0.21984 -1.270037,0.46927 -1.699503,0.54873 -0.20955,0.0388 -0.4191,0.0784 -0.465666,0.0881 -0.472964,0.0984 -1.65357,0.11614 -2.370667,0.0356 -0.168929,-0.019 -0.855556,-0.15271 -1.058333,-0.20615 -0.39805,-0.10489 -0.662539,-0.1901 -0.981034,-0.31604 l -0.219034,-0.0866 -0.2678,0.10588 c -0.226203,0.0894 -0.407009,0.147 -0.923966,0.29422 -0.179646,0.0512 -0.865955,0.18408 -1.064248,0.20612 -0.769846,0.0855 -1.8364,0.0688 -2.407085,-0.0377 -0.121729,-0.0227 -0.689661,-0.13808 -0.846667,-0.17196 -0.200717,-0.0433 -0.99564,-0.3296 -1.308251,-0.47115 -0.17238,-0.0781 -0.319316,-0.13602 -0.326524,-0.12881 -0.05493,0.0549 0.360268,1.14755 0.60674,1.59667 1.08653,1.97987 2.950067,3.35072 5.155535,3.79248 0.634683,0.12713 1.645245,0.15164 2.370667,0.0575 z m -3.470545,-5.86566 c 0.0927,-0.0121 0.206645,-0.0272 0.253211,-0.0334 0.273302,-0.0367 0.698294,-0.12715 0.697105,-0.14844 -7.66e-4,-0.0137 -0.157662,-0.13927 -0.348654,-0.27897 -0.712853,-0.52141 -1.46551,-1.32538 -2.034153,-2.17283 -0.494884,-0.73753 -1.025422,-1.97908 -1.189001,-2.78248 -0.03767,-0.18499 -0.07826,-0.38398 -0.0902,-0.44219 -0.02276,-0.11088 -0.100697,-0.66972 -0.102952,-0.73817 -0.0022,-0.0658 -0.24834,0.18845 -0.530194,0.54767 -0.635766,0.81028 -1.089574,1.72501 -1.354638,2.7305 -0.120009,0.45525 -0.216322,1.17719 -0.227872,1.70809 l -0.0093,0.42975 0.247418,0.1535 c 0.917895,0.56949 2.077833,0.94935 3.164495,1.03634 0.186267,0.0149 0.348192,0.0364 0.359834,0.0478 0.02253,0.022 0.882156,-0.0202 1.164955,-0.0572 z m 6.645545,0.003 c 0.506068,-0.06 0.973463,-0.16276 1.4605,-0.32105 0.425314,-0.13823 1.296125,-0.54226 1.598083,-0.74146 l 0.179917,-0.11869 -0.0013,-0.42446 c -0.0043,-1.38318 -0.446887,-2.78422 -1.266851,-4.00993 -0.166603,-0.24905 -0.42357,-0.58242 -0.571037,-0.74083 l -0.268122,-0.28803 -0.03035,0.254 c -0.206025,1.72422 -0.867698,3.25786 -1.977395,4.58325 -0.465777,0.55631 -1.117259,1.15939 -1.611297,1.49158 -0.08657,0.0582 -0.157526,0.11751 -0.157685,0.13178 -1.69e-4,0.0143 0.147348,0.0509 0.327794,0.0813 0.180446,0.0305 0.356658,0.0619 0.391583,0.07 0.03493,0.008 0.225425,0.0262 0.423334,0.0404 0.197908,0.0142 0.369358,0.0352 0.381,0.0466 0.02135,0.021 0.808067,-0.0172 1.121833,-0.0544 z m -3.513667,-1.11255 c 0.496378,-0.30546 1.299908,-1.01843 1.750687,-1.55336 0.589043,-0.69902 1.21644,-1.92548 1.428864,-2.79321 0.0342,-0.1397 0.0715,-0.2921 0.08289,-0.33866 0.117636,-0.48081 0.207487,-1.74911 0.132508,-1.87043 -0.02634,-0.0426 -0.116907,-0.098 -0.664019,-0.40588 -0.414387,-0.23322 -1.458204,-0.59146 -1.990101,-0.68301 -0.08149,-0.014 -0.195792,-0.0356 -0.254,-0.0479 -0.265259,-0.0562 -1.152423,-0.10763 -1.439334,-0.0835 -0.478493,0.0403 -0.766695,0.0697 -0.864503,0.0883 -1.006829,0.19155 -1.721519,0.44433 -2.500997,0.88461 l -0.381,0.2152 v 0.54915 c 0,0.49269 0.02641,0.85483 0.08019,1.09947 0.01024,0.0466 0.03911,0.17992 0.06417,0.29634 0.210919,0.97985 0.686291,2.0099 1.31378,2.84673 0.60682,0.80927 1.542169,1.61423 2.391358,2.05798 l 0.208835,0.10913 0.235665,-0.13337 c 0.129616,-0.0734 0.311865,-0.18026 0.404998,-0.23757 z m -9.232748,-1.45124 c 0.02251,-0.21253 0.062,-0.4425 0.130076,-0.75749 0.01258,-0.0582 0.03078,-0.14394 0.04045,-0.1905 0.161491,-0.77817 0.645773,-1.89255 1.168207,-2.68817 0.469893,-0.7156 1.171723,-1.49854 1.764574,-1.9685 0.193969,-0.15376 0.21586,-0.1888 0.238038,-0.381 0.01343,-0.11642 0.03458,-0.25929 0.04699,-0.3175 0.01241,-0.0582 0.05338,-0.25719 0.09105,-0.44219 0.142506,-0.69989 0.588598,-1.80786 0.998027,-2.47881 0.158086,-0.25906 0.502167,-0.77148 0.540095,-0.80433 0.01344,-0.0116 0.133647,-0.15629 0.267123,-0.32144 0.396427,-0.49049 1.35709,-1.37297 1.673894,-1.53768 0.129045,-0.0671 0.09088,-0.1127 -0.127247,-0.15209 -0.09947,-0.018 -0.199905,-0.0374 -0.223189,-0.0431 -0.369879,-0.0912 -1.264364,-0.13914 -1.872205,-0.10033 -1.412816,0.0902 -2.759832,0.59127 -3.94429,1.46721 -0.361628,0.26744 -1.042572,0.92847 -1.340466,1.30126 -0.70937,0.88772 -1.22735,2.0054 -1.451802,3.13266 -0.126124,0.63343 -0.138409,0.7668 -0.137486,1.49251 0.0016,1.24631 0.200999,2.12408 0.728469,3.20649 0.309094,0.63429 0.535293,0.98651 0.97504,1.51822 0.378896,0.45815 0.392782,0.46022 0.434659,0.0648 z m 17.655956,-0.12668 c 0.202781,-0.23087 0.651879,-0.92104 0.833719,-1.28126 0.579585,-1.14813 0.812328,-2.13082 0.808469,-3.41355 -0.0031,-1.02389 -0.150667,-1.8238 -0.493244,-2.67336 -0.840443,-2.08422 -2.463639,-3.62638 -4.555652,-4.32822 -0.713554,-0.23938 -1.070848,-0.30862 -1.862666,-0.36094 -0.441905,-0.0292 -1.327452,0.003 -1.61925,0.0589 -0.06403,0.0123 -0.15928,0.03 -0.211667,0.0394 -0.122953,0.022 -0.333957,0.0699 -0.404118,0.0917 -0.03018,0.009 0.112697,0.14361 0.3175,0.2983 0.42312,0.31957 1.289522,1.17214 1.608261,1.58258 0.724582,0.93304 1.401042,2.35122 1.605228,3.36533 0.0094,0.0467 0.02773,0.13246 0.04074,0.19067 0.01301,0.0582 0.04492,0.25437 0.07091,0.43592 l 0.04725,0.3301 0.341489,0.29008 c 1.614928,1.37185 2.725412,3.40976 2.965451,5.44207 0.01375,0.11641 0.03535,0.25918 0.04801,0.31726 0.02531,0.11615 0.0031,0.13475 0.459573,-0.38495 z m -12.063875,-6.9075 c 1.143639,-0.42559 2.402118,-0.60321 3.587751,-0.50637 0.684519,0.0559 0.686243,0.0561 1.17475,0.15581 0.551757,0.11257 1.220279,0.33026 1.752342,0.57063 0.160513,0.0725 0.297709,0.12597 0.30488,0.1188 0.0072,-0.007 -0.0509,-0.20286 -0.129038,-0.43488 -0.608213,-1.80588 -1.808361,-3.23978 -3.502206,-4.18431 l -0.198188,-0.11052 -0.373312,0.21524 c -0.568019,0.32749 -0.988327,0.64615 -1.442535,1.09366 -0.523072,0.51536 -0.67181,0.69163 -1.00269,1.18826 -0.394261,0.59176 -0.683118,1.1815 -0.913124,1.86426 -0.130188,0.38646 -0.124875,0.39405 0.180454,0.25778 0.145521,-0.0649 0.397933,-0.16771 0.560916,-0.22836 z m 46.982779,12.83832 -0.98088,-0.0212 0.63213,-1.397 c 0.34767,-0.76835 0.65007,-1.4351 0.67199,-1.48167 0.0219,-0.0466 0.12584,-0.27185 0.23094,-0.50062 l 0.19109,-0.41596 -0.23749,-0.49421 c -0.13062,-0.27182 -0.53005,-1.09177 -0.88761,-1.82212 -0.35756,-0.73035 -0.65012,-1.33354 -0.65012,-1.34042 0,-0.007 -0.3048,-0.63552 -0.67733,-1.39698 -0.37253,-0.76147 -0.67733,-1.40129 -0.67733,-1.42183 0,-0.0206 0.46674,-0.0374 1.0387,-0.0374 h 1.0387 l 0.21013,0.44776 c 0.11557,0.24628 0.21013,0.45366 0.21013,0.46086 0,0.007 0.0838,0.19147 0.18619,0.40949 0.1024,0.21801 0.36206,0.78691 0.57702,1.26422 0.21496,0.47731 0.45226,1.00118 0.52733,1.16417 0.0751,0.16298 0.1809,0.39663 0.23515,0.51921 0.0542,0.12259 0.11086,0.20831 0.12579,0.1905 0.0149,-0.0178 0.14312,-0.30861 0.28485,-0.64621 0.52366,-1.24731 0.93984,-2.24185 1.24004,-2.96334 0.16953,-0.40746 0.32664,-0.76464 0.34913,-0.79375 0.0605,-0.0783 1.97784,-0.0764 1.97784,0.002 0,0.0302 -0.15939,0.40644 -0.35419,0.83608 -0.1948,0.42965 -0.51702,1.14314 -0.71602,1.58552 -1.70526,3.79068 -1.82111,4.04793 -2.40199,5.334 -0.28395,0.62865 -0.55036,1.2192 -0.59202,1.31233 -0.33843,0.75646 -0.51238,1.13643 -0.53945,1.17836 -0.0234,0.0362 -0.29244,0.0437 -1.01272,0.0281 z m -25.879609,-2.72144 c -0.0116,-0.012 -0.11642,-0.0322 -0.23284,-0.045 -1.00251,-0.10973 -1.98714,-0.70794 -2.59151,-1.57447 -0.16152,-0.23159 -0.33909,-0.58531 -0.45097,-0.89835 -0.22082,-0.61783 -0.23655,-0.82112 -0.2375,-3.06871 l -8.5e-4,-2.02142 h 0.92884 c 0.51085,0 0.93897,0.0164 0.95136,0.0365 0.0124,0.02 0.0241,0.96071 0.026,2.09036 0.004,2.19239 0.004,2.19469 0.22473,2.70324 0.10593,0.24393 0.38126,0.56192 0.62885,0.72626 0.79883,0.53023 1.83593,0.43717 2.463799,-0.22108 0.33857,-0.35496 0.52088,-0.75873 0.59312,-1.31356 0.0106,-0.0815 0.0206,-1.02007 0.0223,-2.08573 l 0.003,-1.93756 0.94192,0.0114 0.94191,0.0114 0.007,1.9685 c 0.006,1.86371 -0.0146,2.31251 -0.12761,2.7305 -0.14127,0.52245 -0.35751,0.98581 -0.64208,1.37584 -0.17574,0.24086 -0.61506,0.66152 -0.87881,0.84147 -0.41296,0.28176 -1.030249,0.53406 -1.512069,0.61803 -0.21517,0.0375 -1.03344,0.078 -1.05833,0.0524 z m 5.530909,-0.22842 c -0.0168,-0.0168 -0.0282,-0.92676 -0.0254,-2.02223 0.005,-2.10543 0.0242,-2.36306 0.21461,-2.94165 0.55167,-1.67631 2.10168,-2.71659 3.8895,-2.61041 1.56123,0.0927 2.8606,1.03933 3.37626,2.45965 0.24697,0.68028 0.24272,0.62844 0.24299,2.96333 l 4.3e-4,2.159 h -0.93134 -0.93133 l -0.0225,-2.13783 c -0.0215,-2.04182 -0.0265,-2.14846 -0.11177,-2.37436 -0.20258,-0.53682 -0.39425,-0.7922 -0.78621,-1.04758 -0.31371,-0.20439 -0.77973,-0.33615 -1.13269,-0.32027 -0.95244,0.0429 -1.55239,0.5708 -1.85138,1.62916 -0.0159,0.0562 -0.0392,1.03566 -0.0518,2.17655 l -0.0229,2.07433 -0.91289,0.0114 c -0.50209,0.006 -0.9266,-0.002 -0.94336,-0.0191 z m 9.32809,-3.67531 v -3.70417 h 0.93133 0.93133 v 3.70417 3.70417 h -0.93133 -0.93133 z m 4.51937,0.82215 -0.0109,-2.88201 -0.61384,-0.007 -0.61383,-0.007 v -0.80441 -0.80433 l 0.62652,-0.0117 0.62653,-0.0117 -0.008,-0.64444 c -0.005,-0.36694 0.0144,-0.76259 0.0439,-0.91882 0.15004,-0.79465 0.64968,-1.46188 1.3357,-1.78376 0.45518,-0.21356 0.73359,-0.26094 1.41739,-0.24121 0.33803,0.01 0.64884,0.0371 0.69067,0.0607 0.0683,0.0385 0.0769,0.12125 0.0847,0.80868 l 0.009,0.76575 -0.4445,-0.007 c -0.41076,-0.006 -0.46329,0.003 -0.69213,0.11505 -0.43167,0.21196 -0.57787,0.57568 -0.57787,1.43762 v 0.40929 h 0.84667 0.84666 v 0.8255 0.8255 h -0.84666 -0.84667 v 2.87866 2.87867 h -0.93104 -0.93104 z m -3.82087,-5.87804 c -0.34811,-0.0842 -0.70205,-0.36306 -0.85039,-0.66999 -0.11803,-0.24423 -0.10897,-0.7395 0.018,-0.98395 0.40483,-0.77942 1.35994,-0.92513 1.92977,-0.2944 0.20877,0.23108 0.28989,0.4282 0.30318,0.73674 0.0242,0.56106 -0.31144,1.01822 -0.8685,1.18298 -0.24542,0.0726 -0.33121,0.0772 -0.53206,0.0286 z"
       style="fill:#24bdb8;fill-opacity:1;stroke-width:0.0423333" />
  </g>
</svg>
